<mxfile host="app.diagrams.net" modified="2021-01-25T06:37:25.802Z" agent="5.0 (Macintosh; Intel Mac OS X 10_15_7) AppleWebKit/537.36 (KHTML, like Gecko) Chrome/87.0.4280.141 Safari/537.36" etag="9lUoR_SCkg2JkGWq6iqe" version="14.1.3" type="github">
  <diagram id="sgadY9-fXxGYqObbApi3" name="Page-1">
    <mxGraphModel dx="3443" dy="1977" grid="1" gridSize="10" guides="1" tooltips="1" connect="1" arrows="1" fold="1" page="1" pageScale="1" pageWidth="2336" pageHeight="1654" math="0" shadow="0">
      <root>
        <mxCell id="0" />
        <mxCell id="1" parent="0" />
        <mxCell id="5kMXBGe95vfFEy3XSCd7-1" value="" style="rounded=0;whiteSpace=wrap;html=1;fillColor=none;fontSize=14;fontColor=#000000;strokeColor=#FFB570;strokeWidth=2;" vertex="1" parent="1">
          <mxGeometry x="1310" y="70" width="960" height="470" as="geometry" />
        </mxCell>
        <mxCell id="5kMXBGe95vfFEy3XSCd7-2" value="" style="rounded=1;whiteSpace=wrap;html=1;fillColor=none;fontSize=10;dashed=1;" vertex="1" parent="1">
          <mxGeometry x="1815" y="110" width="415" height="390" as="geometry" />
        </mxCell>
        <mxCell id="5kMXBGe95vfFEy3XSCd7-3" value="" style="rounded=1;whiteSpace=wrap;html=1;fillColor=none;fontSize=10;dashed=1;" vertex="1" parent="1">
          <mxGeometry x="1350" y="190" width="320" height="310" as="geometry" />
        </mxCell>
        <mxCell id="5kMXBGe95vfFEy3XSCd7-4" value="1" style="ellipse;whiteSpace=wrap;html=1;aspect=fixed;strokeColor=#FFB570;fontSize=14;" vertex="1" parent="1">
          <mxGeometry x="1370" y="210" width="30" height="30" as="geometry" />
        </mxCell>
        <mxCell id="5kMXBGe95vfFEy3XSCd7-5" value="" style="pointerEvents=1;verticalLabelPosition=bottom;shadow=0;dashed=0;align=center;html=1;verticalAlign=top;shape=mxgraph.electrical.miscellaneous.terminal_board" vertex="1" parent="1">
          <mxGeometry x="1470" y="360" width="40" height="80" as="geometry" />
        </mxCell>
        <mxCell id="5kMXBGe95vfFEy3XSCd7-6" value="" style="pointerEvents=1;verticalLabelPosition=bottom;shadow=0;dashed=0;align=center;html=1;verticalAlign=top;shape=mxgraph.electrical.miscellaneous.terminal_board" vertex="1" parent="1">
          <mxGeometry x="1510" y="360" width="40" height="80" as="geometry" />
        </mxCell>
        <mxCell id="5kMXBGe95vfFEy3XSCd7-7" value="" style="endArrow=classic;html=1;dashed=1;edgeStyle=orthogonalEdgeStyle;exitX=0.5;exitY=0;exitDx=0;exitDy=0;startArrow=classic;" edge="1" parent="1" source="5kMXBGe95vfFEy3XSCd7-9">
          <mxGeometry width="50" height="50" relative="1" as="geometry">
            <mxPoint x="1510" y="335" as="sourcePoint" />
            <mxPoint x="1600" y="270" as="targetPoint" />
            <Array as="points">
              <mxPoint x="1510" y="310" />
              <mxPoint x="1600" y="310" />
            </Array>
          </mxGeometry>
        </mxCell>
        <mxCell id="5kMXBGe95vfFEy3XSCd7-8" value="USB Cable" style="edgeLabel;html=1;align=center;verticalAlign=middle;resizable=0;points=[];" vertex="1" connectable="0" parent="5kMXBGe95vfFEy3XSCd7-7">
          <mxGeometry x="0.3078" y="-1" relative="1" as="geometry">
            <mxPoint as="offset" />
          </mxGeometry>
        </mxCell>
        <mxCell id="5kMXBGe95vfFEy3XSCd7-9" value="" style="whiteSpace=wrap;html=1;aspect=fixed;fillColor=none;strokeColor=#3333FF;" vertex="1" parent="1">
          <mxGeometry x="1460" y="350" width="100" height="100" as="geometry" />
        </mxCell>
        <mxCell id="5kMXBGe95vfFEy3XSCd7-10" value="" style="verticalLabelPosition=bottom;html=1;verticalAlign=top;align=center;strokeColor=none;fillColor=#00BEF2;shape=mxgraph.azure.computer;pointerEvents=1;" vertex="1" parent="1">
          <mxGeometry x="1580" y="220" width="50" height="45" as="geometry" />
        </mxCell>
        <mxCell id="5kMXBGe95vfFEy3XSCd7-11" value="FCT Fixture A" style="text;html=1;strokeColor=none;fillColor=none;align=center;verticalAlign=middle;whiteSpace=wrap;rounded=0;fontColor=#3333FF;" vertex="1" parent="1">
          <mxGeometry x="1470" y="450" width="80" height="20" as="geometry" />
        </mxCell>
        <mxCell id="5kMXBGe95vfFEy3XSCd7-12" value="Common Wi-Fi Modules" style="text;html=1;strokeColor=none;fillColor=none;align=center;verticalAlign=middle;whiteSpace=wrap;rounded=0;fontSize=10;" vertex="1" parent="1">
          <mxGeometry x="1370" y="390" width="100" height="20" as="geometry" />
        </mxCell>
        <mxCell id="5kMXBGe95vfFEy3XSCd7-13" value="AWS Cloud &lt;br&gt;- Manufacture" style="outlineConnect=0;fontColor=#232F3E;gradientColor=none;strokeColor=#232F3E;fillColor=#ffffff;dashed=0;verticalLabelPosition=bottom;verticalAlign=top;align=center;html=1;fontSize=12;fontStyle=0;aspect=fixed;shape=mxgraph.aws4.resourceIcon;resIcon=mxgraph.aws4.aws_cloud;" vertex="1" parent="1">
          <mxGeometry x="2160" y="130" width="50" height="50" as="geometry" />
        </mxCell>
        <mxCell id="5kMXBGe95vfFEy3XSCd7-14" value="" style="endArrow=classic;html=1;dashed=1;edgeStyle=orthogonalEdgeStyle;exitX=0.5;exitY=0;exitDx=0;exitDy=0;startArrow=classic;" edge="1" parent="1">
          <mxGeometry width="50" height="50" relative="1" as="geometry">
            <mxPoint x="2070" y="220" as="sourcePoint" />
            <mxPoint x="2160" y="160" as="targetPoint" />
            <Array as="points">
              <mxPoint x="2070" y="160" />
              <mxPoint x="2160" y="160" />
            </Array>
          </mxGeometry>
        </mxCell>
        <mxCell id="5kMXBGe95vfFEy3XSCd7-15" value="" style="html=1;shadow=0;dashed=0;align=center;verticalAlign=middle;shape=mxgraph.arrows2.arrow;dy=0.6;dx=40;notch=0;strokeColor=#000000;fillColor=none;fontSize=10;fontColor=#000000;" vertex="1" parent="1">
          <mxGeometry x="1720" y="330" width="60" height="30" as="geometry" />
        </mxCell>
        <mxCell id="5kMXBGe95vfFEy3XSCd7-16" value="2" style="ellipse;whiteSpace=wrap;html=1;aspect=fixed;strokeColor=#FFB570;fontSize=14;" vertex="1" parent="1">
          <mxGeometry x="1844" y="140" width="30" height="30" as="geometry" />
        </mxCell>
        <mxCell id="5kMXBGe95vfFEy3XSCd7-17" value="" style="pointerEvents=1;verticalLabelPosition=bottom;shadow=0;dashed=0;align=center;html=1;verticalAlign=top;shape=mxgraph.electrical.miscellaneous.terminal_board" vertex="1" parent="1">
          <mxGeometry x="1935" y="360" width="40" height="80" as="geometry" />
        </mxCell>
        <mxCell id="5kMXBGe95vfFEy3XSCd7-18" value="" style="pointerEvents=1;verticalLabelPosition=bottom;shadow=0;dashed=0;align=center;html=1;verticalAlign=top;shape=mxgraph.electrical.miscellaneous.terminal_board" vertex="1" parent="1">
          <mxGeometry x="1975" y="360" width="40" height="80" as="geometry" />
        </mxCell>
        <mxCell id="5kMXBGe95vfFEy3XSCd7-19" value="" style="endArrow=classic;html=1;dashed=1;edgeStyle=orthogonalEdgeStyle;exitX=0.5;exitY=0;exitDx=0;exitDy=0;startArrow=classic;" edge="1" parent="1" source="5kMXBGe95vfFEy3XSCd7-21">
          <mxGeometry width="50" height="50" relative="1" as="geometry">
            <mxPoint x="1975" y="335" as="sourcePoint" />
            <mxPoint x="2065" y="270" as="targetPoint" />
            <Array as="points">
              <mxPoint x="1975" y="310" />
              <mxPoint x="2065" y="310" />
            </Array>
          </mxGeometry>
        </mxCell>
        <mxCell id="5kMXBGe95vfFEy3XSCd7-20" value="USB Cable" style="edgeLabel;html=1;align=center;verticalAlign=middle;resizable=0;points=[];" vertex="1" connectable="0" parent="5kMXBGe95vfFEy3XSCd7-19">
          <mxGeometry x="0.3078" y="-1" relative="1" as="geometry">
            <mxPoint as="offset" />
          </mxGeometry>
        </mxCell>
        <mxCell id="5kMXBGe95vfFEy3XSCd7-21" value="" style="whiteSpace=wrap;html=1;aspect=fixed;fillColor=none;strokeColor=#3333FF;" vertex="1" parent="1">
          <mxGeometry x="1925" y="350" width="100" height="100" as="geometry" />
        </mxCell>
        <mxCell id="5kMXBGe95vfFEy3XSCd7-22" value="" style="verticalLabelPosition=bottom;html=1;verticalAlign=top;align=center;strokeColor=none;fillColor=#00BEF2;shape=mxgraph.azure.computer;pointerEvents=1;" vertex="1" parent="1">
          <mxGeometry x="2045" y="220" width="50" height="45" as="geometry" />
        </mxCell>
        <mxCell id="5kMXBGe95vfFEy3XSCd7-23" value="FCT Fixture B" style="text;html=1;strokeColor=none;fillColor=none;align=center;verticalAlign=middle;whiteSpace=wrap;rounded=0;fontColor=#3333FF;" vertex="1" parent="1">
          <mxGeometry x="1935" y="450" width="80" height="20" as="geometry" />
        </mxCell>
        <mxCell id="5kMXBGe95vfFEy3XSCd7-24" value="Common Wi-Fi Modules" style="text;html=1;strokeColor=none;fillColor=none;align=center;verticalAlign=middle;whiteSpace=wrap;rounded=0;fontSize=10;" vertex="1" parent="1">
          <mxGeometry x="1835" y="390" width="100" height="20" as="geometry" />
        </mxCell>
        <mxCell id="5kMXBGe95vfFEy3XSCd7-25" value="Module Functional Test" style="text;html=1;strokeColor=none;fillColor=none;align=center;verticalAlign=middle;whiteSpace=wrap;rounded=0;fontSize=14;" vertex="1" parent="1">
          <mxGeometry x="1402" y="215" width="150" height="20" as="geometry" />
        </mxCell>
        <mxCell id="5kMXBGe95vfFEy3XSCd7-26" value="Certificates Generation&lt;br&gt;&amp;amp; Security Enabled" style="text;html=1;strokeColor=none;fillColor=none;align=center;verticalAlign=middle;whiteSpace=wrap;rounded=0;fontSize=14;" vertex="1" parent="1">
          <mxGeometry x="1875" y="144" width="150" height="20" as="geometry" />
        </mxCell>
        <mxCell id="5kMXBGe95vfFEy3XSCd7-27" value="Wi-Fi Common Module Manufacture Testing Workflow" style="text;html=1;strokeColor=none;fillColor=none;align=center;verticalAlign=middle;whiteSpace=wrap;rounded=0;fontSize=14;fontStyle=1" vertex="1" parent="1">
          <mxGeometry x="1350" y="110" width="360" height="20" as="geometry" />
        </mxCell>
      </root>
    </mxGraphModel>
  </diagram>
</mxfile>
